Patient4_TMGait_0pt8_01_right_12_EMG.mot
version=1
nRows=23
nColumns=33
inDegrees=no
endheader
time	1LAddLong	2LGlutMax	3LGlutMed	4LIliopsoas	5LSemiMemb	6LBicFemLong	7LRecFem	8LVastMed	9LVastLat	10LGasMed	11LTibAnt	12lTibPost	13LPeroneusLong	14LSol	15LExtDigLong	16LFlexDigLong	17RAddLong	18RGlutMax	19RGlutMed	20RIliopsoas	21RSemiMemb	22RBicFemLong	23RRecFem	24RVastMed	25RVastLat	26RGasMed	27RTibAnt	28RTibPost	29RPeroneusLong	30RSol	31RExtDigLong	32RFlexDigLong
14.005	0.021973	-0.096436	-0.04364	-0.019379	-0.019836	-0.082397	-0.067902	0.026398	0.06958	0.019379	0.11063	-0.1886	-0.036469	0.097961	0.233	-0.004578	0.001984	0.51086	0.21896	-0.051727	0.12634	0.001526	-0.29877	0.006866	0.002747	-0.0177	0.19073	0.013123	-0.94406	0.30243	-0.001831	-0.012054
14.006	0.045166	-0.17807	-0.18295	0.021667	0.011597	-0.014038	-0.13397	0.02182	-0.11078	0.010986	0.10819	-0.13763	-0.25787	0.11902	0.089417	-0.001373	0.017242	0.54214	0.1297	-0.050354	0.16632	-0.059662	-0.26321	-0.055695	0.001831	-0.017395	0.20569	0.008087	-0.95383	0.23987	-0.004883	-0.014954
14.007	0.039063	-0.23941	-0.29419	0.015259	-0.001984	0.020599	-0.14816	0.009308	-0.16998	0.01236	-0.040436	-0.091705	-0.099182	0.10605	-0.079041	-0.010529	0.016327	0.60333	-0.052643	-0.066833	0.15503	-0.09201	-0.21988	-0.089111	-0.007782	-0.007019	0.12116	-0.003204	0.25864	-0.027008	-0.002747	-0.007935
14.008	0.032654	-0.2301	-0.36499	0.015259	0.036926	-0.092926	-0.10529	-0.008087	-0.13306	0.023956	-0.18921	-0.058441	0.06424	0.009766	-0.23987	-0.005493	0.000153	0.55466	-0.1062	-0.040283	0.14862	-0.057983	-0.23819	-0.046234	0.007019	0.003967	0.010986	0.002441	0.7225	-0.14343	-0.003967	-0.008087
14.009	0.027466	-0.26291	-0.23209	0.033722	0.094757	-0.27741	-0.13382	-0.009766	-0.10788	0.0383	-0.082397	-0.019531	-0.012665	-0.055084	-0.2626	-0.015259	-0.009918	0.50598	-0.11704	-0.016632	0.17593	-0.063019	-0.26016	0.034332	0.019226	0.007477	-0.052185	-0.001068	-0.069427	-0.17685	-0.007324	-0.001526
14.01	-0.001831	-0.24292	0.083618	0.026398	0.06134	-0.016174	-0.11887	-0.006866	-0.13504	0.007019	0.020142	0.015106	-0.044556	-0.017548	-0.31693	-0.009308	-0.008087	0.47577	-0.084381	-0.028534	0.17471	-0.082092	-0.24292	0.000916	0.019379	0.003357	-0.078583	-0.001526	0.7991	-0.028534	-0.004883	-0.005493
14.011	0.001984	-0.25681	0.1088	0.005188	0.047913	0.1416	-0.11948	0.018005	-0.063171	-0.055389	0.11292	0.029755	0.19562	0.039215	0.11475	-0.007477	-0.001221	0.43366	-0.045776	0.097198	0.13138	-0.11002	-0.22018	-0.080566	0.014191	-0.013275	-0.001526	-0.001526	0.37064	0.001831	-0.003052	-0.013428
14.012	-0.015717	-0.24048	0.097961	0.002136	0.030823	0.33722	-0.12054	0.019836	0.099335	-0.05661	0.17181	0.042114	0.31448	0.023956	0.21072	-0.000305	-0.005188	0.48843	0.023651	0.14206	0.096283	-0.13458	-0.24338	-0.089111	0.018158	-0.017395	-0.081482	-0.008392	0.73074	-0.06073	-0.00061	-0.007935
14.013	-0.009308	-0.21027	0.051727	0.005035	0.036011	0.53223	-0.10376	0.010834	0.089874	-0.053711	0.014191	0.053253	0.23834	0.095825	0.5455	0.00061	-0.028076	0.47119	0.046234	0.063934	0.070648	-0.18112	-0.24307	-0.061493	0.027161	-0.018158	-0.13611	0.00351	1.3817	-0.06073	-0.001678	-0.010376
14.014	0.004578	-0.16098	-0.005646	0.002441	0.076752	0.37201	-0.092621	0.031128	-0.02594	-0.024261	-0.044861	0.062256	0.10483	0.14099	0.21286	-0.009918	0.001221	0.50156	0.077972	0.004883	0.057983	-0.11093	-0.19486	-0.08316	0.030212	-0.010681	-0.069275	0.003052	0.18036	-0.006714	0.000153	-0.006409
14.015	0.001678	-0.089874	-0.041962	-0.00824	0.039215	0.4689	-0.03891	0.044708	-0.1294	-0.014954	-0.16632	0.06134	0.0177	0.11337	-0.070801	-0.009613	0.019684	0.54031	0.10391	-0.12665	0.090332	-0.032959	-0.1944	-0.10346	0.009613	0.001068	-0.010986	0.006866	-1.2555	0.005035	-0.003052	-0.010223
14.016	0.001221	-0.056915	-0.10605	0.002441	-0.05661	0.48462	-0.010071	0.041504	-0.1445	0.024261	-0.070801	0.06012	0.070343	-0.093842	-0.095215	-0.010834	0.011597	0.55847	0.00061	-0.16922	0.091248	0.056152	-0.21072	-0.007172	0.022736	0.001373	0.13458	0.00885	-1.0881	-0.002136	0.001221	-0.013123
14.017	-0.003357	-0.08728	0.026703	-0.009613	-0.06073	0.47882	-0.005188	0.049896	-0.21881	0.063477	-0.084381	0.068054	-0.031281	-0.11688	-0.18738	-0.013733	0.063019	0.4985	0.096741	-0.1738	0.076904	0.002899	-0.23483	-0.057678	0.038757	-0.005188	0.14252	0.007477	-0.50461	-0.20874	0.000763	-0.006561
14.018	0.000305	-0.1384	0.097961	0.011292	-0.10925	0.52551	0.026245	0.054779	-0.22415	0.057983	0.088348	0.061493	-0.062408	-0.080719	-0.26504	0.002441	0.072174	0.51773	0.11856	-0.1178	0.068054	-0.050354	-0.2179	-0.038605	0.044708	0.000763	-0.027313	-0.013428	-0.43686	-0.44342	-0.003967	-0.011292
14.019	-0.016785	-0.20355	-0.028076	0.007172	-0.071716	-0.024261	0.044861	0.061035	-0.13702	0.059052	0.10361	0.059967	-0.099335	-0.12543	-0.22095	-0.00473	0.056152	0.57098	0.1445	0.093842	0.04715	-0.15915	-0.24109	0.075684	0.074768	0.004272	-0.13718	-0.099945	-0.86762	-0.18478	-0.003967	-0.010529
14.02	-0.036316	-0.20142	-0.023346	0.00946	-0.037079	-0.48431	0.071716	0.05722	-0.11093	0.03006	0.046539	0.065002	0.12558	-0.11566	-0.1918	-0.00412	0.056915	0.54733	0.13229	0.21378	0.060425	-0.13931	-0.23392	0.051727	0.069122	0.010834	-0.088806	0.026703	-0.57632	0.43945	-0.005493	-0.023041
14.021	-0.041809	-0.29144	0.001221	-0.006104	-0.071411	-0.63446	-0.01297	0.045929	-0.10605	-0.005341	0.01709	0.065002	0.7106	0.088959	-0.084991	0.006714	0.042114	0.50537	0.14481	0.30853	0.075226	0.031738	-0.23392	0.10559	0.074158	0.019531	-0.02594	0.034332	0.044403	0.39169	0.004272	-0.015564
14.022	-0.02243	-0.29098	0.03479	-0.000458	-0.095825	-0.65597	-0.047302	0.040741	-0.079041	0.012512	0.015564	0.075989	0.19928	0.14862	-0.022583	0.005341	-0.001526	0.45441	0.2385	0.29098	0.14603	0.086823	-0.21606	0.12528	0.091095	0.027618	0.065765	0.005798	0.99792	0.21454	-0.005188	-0.011139
14.023	-0.00061	-0.3392	0.005646	-0.006561	-0.072937	-0.86243	-0.051422	0.018768	-0.15564	0.035248	0.035553	0.062866	-0.10941	0.12604	0.12909	0.010376	-0.032349	0.44159	0.31082	0.11612	0.17807	0.072174	-0.19531	0.074615	0.077515	0.03479	-0.058289	0.001984	0.24139	0.083466	-0.00351	-0.012817
14.024	0.046844	-0.42343	-0.028534	0.017853	0.062866	-0.93674	-0.040283	-0.011444	-0.05249	0.028534	0.022125	0.064392	-0.64331	0.064697	0.11719	0.00061	-0.044861	0.50751	0.37262	0.024414	0.18158	0.1181	-0.20355	0.057831	0.067902	0.053558	0.051422	0.003967	-0.82352	-0.030975	-0.009003	-0.005798
14.025	0.058899	-0.43015	0.002441	-0.00473	0.25635	-0.73654	-0.048065	0.010834	0.034332	0.023804	0.070496	0.058899	0.36514	-0.103	0.026398	0.008698	-0.074005	0.4657	0.3801	-0.024872	0.14923	0.26032	-0.17349	0.039215	0.066223	0.059814	0.008698	0.016937	-0.15518	-0.1152	-0.003052	0.000763
14.026	0.036163	-0.40924	-0.042419	0.010071	0.30807	-0.32059	-0.086975	0.017242	0.17624	0.028534	0.15167	0.057678	0.42816	-0.19348	0.11063	0.013123	-0.076294	0.46402	0.30823	-0.000763	0.13351	0.30167	-0.19638	0.042267	0.06134	0.056458	0.005493	0.018616	0.76492	-0.22995	-0.005188	-0.006866
14.027	0.019226	-0.40024	-0.066376	0.0177	0.1181	-0.042419	-0.029144	0.01297	0.24811	0.061493	0.15488	0.056	0.1619	-0.25391	-0.0354	0.010376	-0.062561	0.42404	0.35034	-0.034943	0.13886	0.29755	-0.14786	0.026245	0.063934	0.036011	0.07431	-0.041351	0.85617	-0.14358	-0.002441	-0.012665
